<?xml version="1.0" standalone="no"?>
<!DOCTYPE svg PUBLIC "-//W3C//DTD SVG 20010904//EN"
 "http://www.w3.org/TR/2001/REC-SVG-20010904/DTD/svg10.dtd">
<svg version="1.0" xmlns="http://www.w3.org/2000/svg"
 width="1200.000000pt" height="1200.000000pt" viewBox="0 0 1200.000000 1200.000000"
 preserveAspectRatio="xMidYMid meet">
<metadata>
Created by potrace 1.11, written by Peter Selinger 2001-2013
</metadata>
<g transform="translate(0.000000,1200.000000) scale(0.100000,-0.100000)"
fill="#000000" stroke="none">
<path d="M5425 11214 c-417 -31 -789 -134 -1155 -319 -453 -230 -848 -583
-1136 -1017 -227 -342 -376 -721 -451 -1147 -22 -128 -26 -189 -33 -501 -12
-521 -12 -4054 0 -4230 91 -1315 1036 -2421 2310 -2705 273 -60 458 -75 960
-75 411 0 569 8 770 41 1250 201 2248 1194 2454 2442 47 280 48 340 44 2627
-5 2337 -1 2195 -58 2490 -75 394 -251 802 -490 1140 -433 611 -1093 1046
-1811 1194 -261 54 -318 58 -854 61 -275 1 -522 1 -550 -1z m610 -1606 c507
-589 682 -793 1025 -1189 140 -161 350 -405 466 -541 l212 -246 -306 -304
c-768 -759 -1032 -1019 -1092 -1075 l-64 -61 33 -38 c30 -36 337 -346 1130
-1146 l294 -296 -196 -239 c-107 -131 -241 -294 -298 -363 -57 -69 -140 -170
-185 -225 -320 -389 -473 -576 -804 -976 -206 -250 -437 -530 -515 -624 l-140
-169 -5 1696 -5 1696 -90 -86 c-49 -47 -305 -297 -568 -556 -263 -259 -482
-472 -486 -474 -4 -1 -92 84 -196 189 l-190 192 306 301 c168 165 491 483 717
705 227 223 412 407 412 410 0 10 -197 211 -821 836 -335 336 -609 615 -609
621 0 5 85 94 190 199 l189 189 575 -579 575 -580 0 1618 c1 889 4 1617 9
1616 4 0 201 -225 437 -501z"/>
<path d="M6140 7739 l0 -912 78 74 c141 133 772 754 772 759 0 6 -4 10 -470
550 -178 206 -336 390 -352 408 l-28 33 0 -912z"/>
<path d="M6140 4590 c0 -804 2 -952 14 -940 7 8 174 211 371 450 197 239 382
464 412 500 29 35 53 69 53 75 0 5 -191 204 -425 440 l-424 430 -1 -955z"/>
</g>
</svg>
